# xmcd
#
# Track frame offsets:
#	150
#	18549
#	35767
#	53605
#	73697
#	93263
#	114838
#	135532
#	155455
#	173139
#	188692
#	205120
#	221940
#	241083
#	259112
#
# Disc length: 3661 seconds
#
# Revision: 3
# Processed by: cddbd v1.5.2PL0 Copyright (c) Steve Scherf et al.
# Submitted via: EasyCDDAExtractor 15.3.0.1
#
DISCID=cb0e4b0f
DTITLE=Olga Tañon - Soy Como Tu
DYEAR=2006
DGENRE=Latin
TTITLE0=Maria
TTITLE1=Desilusioname
TTITLE2=Angeles
TTITLE3=Duele Duele
TTITLE4=Flaca O Gordita
TTITLE5=Ay, Que Lindo
TTITLE6=Me Resisto
TTITLE7=Habla Claro
TTITLE8=Mi Rechazo
TTITLE9=Tanta Habladuria
TTITLE10=Amiga
TTITLE11=Sigue Moviendote (Con La Participacion De Joel Dando Tra)
TTITLE12=Vive Tu Vida
TTITLE13=Desilusioname (Version Salsa)
TTITLE14=Desilusioname (A Duo Con Conjunto Primavera) (Tony Melendez)
EXTD=
EXTT0=
EXTT1=
EXTT2=
EXTT3=
EXTT4=
EXTT5=
EXTT6=
EXTT7=
EXTT8=
EXTT9=
EXTT10=
EXTT11=
EXTT12=
EXTT13=
EXTT14=
PLAYORDER=
